- 
http://www.Speed.Cd
 
http://www.Speed.Cd       the fast  and The Hottest Private Tracker on the net

(((--Registration is Open!!--)))

Please Seed back to make the speed Faster!!!

and don't forget to visit .......http://www.Speed.Cd  ......


 ............ NFO .............
-[b]General[/b]

Complete name                            : Franklin.and.Bash.S02E05.The affair of the Heart.480p.WEB-DL.DD5.1.H.264.mkv
Format                                   : Matroska
Format version                           : Version 1
File size                                : 262 MiB
Duration                                 : 42mn 10s
Overall bit rate                         : 869 Kbps
Encoded date                             : UTC 2012-08-01 22:48:03
Writing application                      : AVSMatroskaFile
Writing library                          : libebml v0.7.7 + libmatroska v0.8.1

[b]Video[/b]

ID                                       : 1
Format                                   : AVC
Format/Info                              : Advanced Video Codec
Format profile                           : Main@L5.1
Format settings, CABAC                   : Yes
Format settings, ReFrames                : 1 frame
Codec ID                                 : V_MPEG4/ISO/AVC
Duration                                 : 42mn 10s
Bit rate                                 : 692 Kbps
Width                                    : 852 pixels
Height                                   : 480 pixels
Display aspect ratio                     : 16:9
Frame rate                               : 23.976 fps
Color space                              : YUV
Chroma subsampling                       : 4:2:0
Bit depth                                : 8 bits
Scan type                                : Progressive
Bits/(Pixel*Frame)                       : 0.071
Stream size                              : 209 MiB (80%)
Default                                  : Yes
Forced                                   : No

[b]Audio[/b]

ID                                       : 2
Format                                   : MPEG Audio
Format version                           : Version 1
Format profile                           : Layer 3
Codec ID                                 : A_MPEG/L3
Codec ID/Hint                            : MP3
Duration                                 : 42mn 10s
Bit rate mode                            : Constant
Bit rate                                 : 160 Kbps
Channel(s)                               : 2 channels
Sampling rate                            : 48.0 KHz
Compression mode                         : Lossy
Stream size                              : 48.3 MiB (18%)
Writing library                          : LAMELAME_MAJOR_VERSI
Default                                  : Yes
Forced                                   : No